<svg width="255" height="56" viewBox="0 0 255 56" fill="none" xmlns="http://www.w3.org/2000/svg">
<g clip-path="url(#clip0_0_1311)">
<path d="M48.234 12.293L45.9328 10.987L44.464 10.1559L39.8518 7.53751L38.1806 6.59091L27.6735 0.625751C26.2047 -0.205328 24.3997 -0.205328 22.9341 0.625751L12.3356 6.63905L10.795 7.51505L6.20893 10.1174L4.54098 11.064L2.37363 12.293C0.904793 13.124 0.00390625 14.661 0.00390625 16.3264V39.6672C0.00390625 41.3326 0.908057 42.8696 2.37363 43.7039L22.9341 55.3743C24.4029 56.2054 26.208 56.2054 27.6735 55.3743L48.234 43.7039C49.6996 42.8728 50.6037 41.3358 50.6037 39.6672V16.3296C50.6037 14.6643 49.6996 13.1272 48.234 12.2962V12.293Z" fill="#FCFFF8"/>
<path d="M49.295 39.6288C49.295 40.8577 48.6258 41.9969 47.5422 42.6097L27.0535 54.2384C25.9698 54.8545 24.6348 54.8545 23.5512 54.2384L3.06251 42.6097C1.97883 41.9969 1.30969 40.8577 1.30969 39.6288V16.3714C1.30969 15.1424 1.97883 14.0033 3.06251 13.3904L4.74024 12.4406L6.37881 11.51L11.8429 8.41033L13.3378 7.56L23.5512 1.75849C24.6348 1.14561 25.9698 1.14561 27.0535 1.75849L37.1787 7.50545L38.8075 8.42959L44.2944 11.5453L45.7371 12.3668L47.5422 13.3904C48.6258 14.0033 49.295 15.1424 49.295 16.3714V39.6288Z" fill="url(#paint0_linear_0_1311)"/>
<path d="M46.7582 32.4087C46.6831 28.9272 45.7104 25.3269 43.9902 22.0636C43.8336 21.7619 43.6671 21.4667 43.4974 21.1715C44.0457 19.5286 45.1523 15.9733 45.7365 12.3634C45.8116 11.9045 45.8769 11.4456 45.9324 10.9868C46.3143 7.84858 46.1935 4.85156 44.8487 3.24395C43.5039 2.97441 41.2256 3.9178 38.1802 6.58752C37.8538 6.8731 37.5208 7.17794 37.1748 7.50524C35.9606 8.6572 34.6419 10.0659 33.222 11.7569C32.9642 11.6446 32.7063 11.5387 32.4419 11.436C30.2648 10.5921 27.8885 10.1204 25.3458 10.1204C22.8031 10.1204 20.3583 10.6049 18.155 11.4713C17.8645 11.5836 17.5773 11.7056 17.2933 11.8339C15.8702 10.1332 14.5482 8.71496 13.3274 7.55658C12.9847 7.22928 12.6518 6.92445 12.3254 6.63886C9.25386 3.93384 6.95269 2.97762 5.60135 3.24716C4.25002 4.8676 4.13578 7.89992 4.52747 11.0638C4.58296 11.5194 4.65151 11.9783 4.72658 12.4372C5.34676 16.23 6.53815 19.9522 7.04408 21.4379C6.91352 21.6657 6.78948 21.8967 6.66871 22.131C5.0334 25.2563 4.08356 28.6865 3.94646 32.0237C3.93341 32.3061 3.92688 32.5852 3.92688 32.8644C3.92688 32.9799 3.92688 33.0954 3.93341 33.2109C4.82777 32.996 5.76782 32.8836 6.73073 32.8836C10.5954 32.8836 14.026 34.7062 16.1835 37.5236C17.4565 33.0537 21.0731 29.8321 25.3393 29.8321C29.6054 29.8321 33.098 32.9446 34.4265 37.2893C36.5971 34.8186 39.8057 33.2527 43.3864 33.2527C44.5419 33.2527 45.6614 33.4163 46.7158 33.7179C46.7386 33.4356 46.7517 33.1532 46.7517 32.8644C46.7517 32.7136 46.7517 32.5628 46.7451 32.412L46.7582 32.4087ZM34.6354 19.5511C35.6734 19.5511 37.2075 20.4624 37.2075 21.8197C37.2075 22.731 36.7374 23.4369 34.7725 23.4049C32.8075 23.3728 31.8576 23.1674 31.7565 22.3042C31.6553 21.4411 32.7292 19.4901 34.6354 19.5511ZM18.3411 22.3042C18.2399 23.1706 17.29 23.3728 15.3251 23.4049C13.3568 23.4369 12.8901 22.731 12.8901 21.8197C12.8901 20.4624 14.4209 19.5511 15.4622 19.5511C17.3684 19.4901 18.4455 21.4379 18.3411 22.3042Z" fill="#E8883A"/>
<path d="M46.7292 33.7179C46.1906 40.2831 39.5253 44.7208 33.5129 47.0408C32.971 47.2494 32.4325 47.4419 31.9037 47.6184C29.2435 48.5008 26.8444 48.9404 25.3527 48.9404C23.75 48.9404 21.0996 48.4302 18.1978 47.413C17.8649 47.2975 17.5287 47.1724 17.1892 47.0408C11.0233 44.6631 4.16876 40.0552 3.94354 33.2141C4.84117 32.9991 5.77796 32.8868 6.74086 32.8868C10.6055 32.8868 14.0361 34.7094 16.1936 37.5267C17.4666 33.0568 21.0832 29.8352 25.3494 29.8352C29.6156 29.8352 33.1081 32.9477 34.4366 37.2957C36.604 34.8217 39.8158 33.259 43.3965 33.259C44.552 33.259 45.6716 33.4226 46.7259 33.7275L46.7292 33.7179Z" fill="#E0D6D0"/>
<path d="M12.299 24.5054C12.9845 24.1524 20.4919 27.0821 20.4592 29.4758C20.4592 29.4758 20.2699 29.8962 17.5966 29.4758C14.9233 29.0555 12.8147 28.1185 11.9759 27.0692C11.6658 26.0553 12.0444 24.9611 12.3023 24.5054H12.299Z" fill="black"/>
<path d="M38.4025 24.5054C37.717 24.1524 30.2097 27.0821 30.2423 29.4758C30.2423 29.4758 30.4316 29.8962 33.1049 29.4758C35.7782 29.0555 37.8868 28.1185 38.7256 27.0692C39.0357 26.0553 38.6571 24.9611 38.3992 24.5054H38.4025Z" fill="black"/>
<path d="M47.3849 28.4203C46.7908 26.2864 46.0042 23.713 44.7247 21.1459C44.5321 21.4668 44.2938 21.7813 43.9903 22.0604C43.8597 22.1824 43.7161 22.2979 43.5561 22.4038C41.8751 23.5333 33.3755 13.3229 32.517 12.4821C32.2298 12.1998 32.2689 11.8211 32.4452 11.4361C32.6051 11.0863 32.8826 10.7333 33.1372 10.4542C30.9927 9.66161 28.5218 9.1129 25.6657 8.90433C25.5417 8.89471 25.4209 8.88829 25.2969 8.87866C25.1728 8.88829 25.052 8.89471 24.928 8.90433C22.0687 9.1129 19.5978 9.66161 17.4533 10.4542C17.7144 10.743 18.0016 11.1088 18.1583 11.4714C18.3215 11.8436 18.3509 12.2094 18.0734 12.4821C17.215 13.3229 8.71531 23.5333 7.03431 22.4038C6.90374 22.3171 6.78623 22.2241 6.67199 22.1278C6.33253 21.8326 6.0714 21.4925 5.8625 21.1491C4.58624 23.7162 3.79633 26.2864 3.20553 28.4235C2.49396 30.8975 3.08803 31.4975 3.93016 32.027C3.93669 32.027 3.94322 32.027 3.94975 32.027C9.47584 31.1959 12.9521 32.4345 15.9191 35.5791C17.0583 32.1072 21.1058 29.0139 25.2936 29.0011C29.4194 28.9882 33.2286 31.4847 34.8051 35.4572C37.7754 32.3093 42.5345 31.3178 46.7223 32.4345C46.7321 32.4281 46.7419 32.4216 46.7517 32.4152C47.5775 31.8826 48.0834 30.875 47.3784 28.4267L47.3849 28.4203ZM34.6354 19.5479C35.6734 19.5479 37.2075 20.4592 37.2075 21.8165C37.2075 22.7278 36.7375 23.4338 34.7725 23.4017C32.8075 23.3696 31.8577 23.1642 31.7565 22.3011C31.6553 21.4379 32.7292 19.487 34.6354 19.5479ZM15.4622 19.5479C17.3684 19.487 18.4455 21.4347 18.3411 22.3011C18.2399 23.1675 17.2901 23.3696 15.3251 23.4017C13.3568 23.4338 12.8901 22.7278 12.8901 21.8165C12.8901 20.4592 14.4209 19.5479 15.4622 19.5479ZM20.4464 29.6236C20.2016 29.7391 19.9013 29.7359 19.588 29.7359C19.0592 29.7359 18.3737 29.6749 17.5512 29.5594C14.7408 29.1615 12.4821 28.2694 11.5094 27.1785L11.431 27.0886L11.3951 26.9827C11.0198 25.8757 11.4604 24.7269 11.777 24.2199L11.8749 24.0659L12.0512 23.9857C12.1883 23.9215 12.345 23.8926 12.5375 23.8926C13.7289 23.8926 19.1408 25.6479 20.7304 28.7829C20.8871 29.0941 20.763 29.4792 20.4464 29.63V29.6236ZM39.3324 26.9795L39.2965 27.0854L39.2182 27.1752C38.2422 28.2695 35.9835 29.1583 33.1764 29.5562C32.3538 29.6717 31.6683 29.7327 31.1396 29.7327C30.8229 29.7327 30.5227 29.7359 30.2778 29.6204C29.9612 29.4727 29.8372 29.0845 29.9939 28.7732C31.5867 25.6382 36.9953 23.883 38.19 23.883C38.3826 23.883 38.5425 23.9151 38.6796 23.9761L38.8559 24.0563L38.9505 24.2103C39.2704 24.7141 39.7078 25.8661 39.3324 26.9731V26.9795Z" fill="#0F3029"/>
<path d="M37.2075 21.8198C37.2075 22.7311 36.7375 23.4371 34.7725 23.405C32.8075 23.3729 31.8577 23.1675 31.7565 22.3044C31.6553 21.4412 32.7292 19.4902 34.6354 19.5512C35.6734 19.5512 37.2075 20.4625 37.2075 21.8198Z" fill="#E0D6D0"/>
<path d="M18.3407 22.3009C18.2395 23.1673 17.2896 23.3695 15.3247 23.4016C13.3564 23.4336 12.8896 22.7277 12.8896 21.8164C12.8896 20.4591 14.4205 19.5478 15.4617 19.5478C17.368 19.4868 18.4451 21.4346 18.3407 22.3009Z" fill="#E0D6D0"/>
<path d="M27.2589 41.7175V42.1218L26.6845 42.4812L26.2797 42.1475L25.5355 42.8791H25.1406L24.3963 42.1475L23.9916 42.4812L23.4171 42.1218V41.7175H27.2589Z" fill="black"/>
<path d="M31.0224 40.1323L29.3316 43.5497L28.9987 40.9249C28.9987 40.9249 26.9064 41.2618 25.356 41.265H25.3266C25.0589 41.265 24.7717 41.2522 24.4845 41.2362C23.1136 41.1527 21.6839 40.9249 21.6839 40.9249L21.351 43.5497L19.6602 40.1323H21.4978L21.6186 40.3794H23.8839L24.3311 39.6767H24.6542V38.0627C24.5987 38.0402 24.5432 38.0209 24.4877 37.9985C21.7688 36.9235 22.2323 35.133 22.2323 34.1768C22.2323 33.2206 23.5216 33.0088 23.5216 33.0088H27.161C27.161 33.0088 28.4503 33.1981 28.4503 34.1768C28.4503 35.1555 28.9302 36.9973 26.0284 38.0627V39.6767H26.3515L26.7987 40.3794H29.064L29.1848 40.1323H31.0224Z" fill="black"/>
<path d="M25.303 10.4189C27.5911 15.3316 27.6075 22.8498 25.303 27.7657C23.0018 22.8563 23.0149 15.338 25.303 10.4189Z" fill="#E0D6D0"/>
<path d="M16.8696 28.7603C17.4303 28.7603 17.8848 28.3135 17.8848 27.7623C17.8848 27.2112 17.4303 26.7644 16.8696 26.7644C16.309 26.7644 15.8545 27.2112 15.8545 27.7623C15.8545 28.3135 16.309 28.7603 16.8696 28.7603Z" fill="#E0D6D0"/>
<path d="M33.8001 28.7603C34.3607 28.7603 34.8152 28.3135 34.8152 27.7623C34.8152 27.2112 34.3607 26.7644 33.8001 26.7644C33.2395 26.7644 32.785 27.2112 32.785 27.7623C32.785 28.3135 33.2395 28.7603 33.8001 28.7603Z" fill="#E0D6D0"/>
<g style="mix-blend-mode:multiply" opacity="0.61">
<path d="M6.63946 4.53711C6.63946 4.53711 13.0207 8.38125 15.619 12.7163C13.0044 15.9701 11.0068 18.3799 8.58486 19.9779C6.23798 14.1956 5.38606 5.96503 6.63946 4.53711Z" fill="#A05E3E"/>
</g>
<g style="mix-blend-mode:multiply" opacity="0.61">
<path d="M44.0363 4.53711C44.0363 4.53711 37.655 8.38125 35.0568 12.7163C37.6713 15.9701 39.6689 18.3799 42.0909 19.9779C44.4377 14.1956 45.2897 5.96503 44.0363 4.53711Z" fill="#A05E3E"/>
</g>
<path d="M68.8041 23.347L68.8988 23.562C69.3068 24.2711 70.0282 24.5182 70.7528 24.7653C72.4175 25.2915 74.1768 25.6605 75.8089 26.3408C76.4682 26.62 77.1275 26.9601 77.7249 27.3612C78.5735 27.9484 79.3275 28.6897 79.7976 29.6138C80.6756 31.2792 80.6136 33.3488 79.7355 35.0463C78.8869 36.7149 77.3169 38.0112 75.5575 38.7525C73.7982 39.4937 71.8201 39.6798 69.9368 39.5547C66.8261 39.3397 63.7513 38.2262 61.4893 36.1277L65.7914 32.2065C67.4234 33.8109 69.7475 34.7382 72.0421 34.6773C73.2988 34.6452 74.8068 34.0901 74.5848 32.6397C74.5522 32.5178 74.5228 32.4247 74.4902 32.3605C74.0495 31.4043 73.1388 31.0321 72.2608 30.7561C70.8801 30.2941 69.4341 30.0149 68.0534 29.5528C66.6727 29.0908 65.3214 28.4426 64.3487 27.3612C63.3107 26.2798 62.7786 24.7974 62.7786 23.3181C62.8113 21.8357 63.4053 20.3532 64.4433 19.275C65.5433 18.0396 67.1133 17.2984 68.7454 16.8684C70.7561 16.3133 72.8908 16.2812 74.9308 16.6823C77.0361 17.0834 79.0436 17.9787 80.7409 19.3071L78.9522 21.0046C78.1655 21.7779 77.3201 22.548 76.5041 23.3213C75.0287 21.6848 72.61 20.9115 70.4427 21.4378C69.532 21.6528 68.494 22.2721 68.8107 23.3534L68.8041 23.347Z" fill="#FCFFF8"/>
<path d="M99.1728 17.2664H104.513V38.7846H99.1728V31.3755H90.7874V38.7846H85.4473V17.2664H90.7874V26.1259H99.1728V17.2664Z" fill="#FCFFF8"/>
<path d="M111.107 17.2021H116.447V38.7236H111.107V17.2021Z" fill="#FCFFF8"/>
<path d="M140.532 27.8554C141.476 28.9977 142.07 30.4481 142.07 32.0557C142.07 35.7298 138.992 38.7236 135.254 38.7236H122.724V17.2021H135.036C138.773 17.2021 141.851 20.228 141.851 23.9021C141.851 25.3846 141.348 26.7419 140.532 27.8554ZM128.064 25.3557H135.036C135.822 25.3557 136.482 24.7075 136.482 23.9053C136.482 23.1031 135.822 22.4838 135.036 22.4838H128.064V25.3557ZM136.7 32.0557C136.7 31.2535 136.008 30.6053 135.192 30.6053H128.064V33.4772H135.254C136.041 33.4772 136.7 32.829 136.7 32.0557Z" fill="#FCFFF8"/>
<path d="M160.349 36.1277H151.398L150.36 38.7813H144.583L153.031 17.2021H158.684L167.164 38.7813H161.387L160.352 36.1277H160.349ZM158.309 30.8781L155.857 24.6401L153.439 30.8781H158.305H158.309Z" fill="#FCFFF8"/>
<path d="M191.377 27.9773C191.377 33.904 186.477 38.7204 180.449 38.7204H171.152V17.2021H180.449C186.477 17.2021 191.377 22.0506 191.377 27.9773ZM186.037 27.9773C186.037 24.9514 183.523 22.4806 180.445 22.4806H176.489V33.4708H180.445C183.523 33.4708 186.037 31 186.037 27.9741V27.9773Z" fill="#FCFFF8"/>
<path d="M196.714 17.2021H202.054V38.7236H196.714V17.2021Z" fill="#FCFFF8"/>
<path d="M222.781 17.2664H228.121V38.7846H222.278L213.674 25.9398V38.7204H208.334V17.1733H214.206L222.781 29.954V17.2664Z" fill="#FCFFF8"/>
<path d="M255.001 27.9484C255.001 34.0611 249.977 38.9995 243.756 38.9995C237.534 38.9995 232.511 34.0611 232.511 27.9484C232.511 21.8356 237.567 16.894 243.756 16.894C249.944 16.894 255.001 21.8645 255.001 27.9484ZM249.66 27.9484C249.66 24.7364 247.023 22.1436 243.756 22.1436C240.488 22.1436 237.851 24.7364 237.851 27.9484C237.851 31.1604 240.521 33.7531 243.756 33.7531C246.99 33.7531 249.66 31.1604 249.66 27.9484Z" fill="#FCFFF8"/>
</g>
<defs>
<linearGradient id="paint0_linear_0_1311" x1="1.30969" y1="28.0001" x2="49.295" y2="28.0001" gradientUnits="userSpaceOnUse">
<stop stop-color="#4D7249"/>
<stop offset="1" stop-color="#557E52"/>
</linearGradient>
<clipPath id="clip0_0_1311">
<rect width="255" height="56" fill="white"/>
</clipPath>
</defs>
</svg>
